<svg xmlns="http://www.w3.org/2000/svg" width="800" zoomAndPan="magnify" viewBox="0 0 600 599.999999" height="800" preserveAspectRatio="xMidYMid meet" version="1.0"><defs><clipPath id="172dea0e91"><path d="M 83 36 L 539.648438 36 L 539.648438 565 L 83 565 Z M 83 36 " clip-rule="nonzero"/></clipPath></defs><g clip-path="url(#172dea0e91)"><path fill="#000000" d="M 89.554688 563.210938 C 83.496094 559.910156 82.832031 555.96875 83.28125 525.886719 L 83.691406 498.183594 L 87.441406 494.964844 C 90.828125 492.050781 92.398438 491.742188 103.804688 491.742188 L 116.417969 491.742188 L 116.421875 468.03125 C 116.429688 446.882812 116.707031 443.890625 119.007812 440.316406 C 120.425781 438.109375 133.027344 424.285156 147.007812 409.59375 L 172.429688 382.875 L 172.5 193.195312 L 141.058594 169.289062 C 123.769531 156.140625 109.046875 144.308594 108.34375 142.996094 C 107.601562 141.609375 107.066406 120.976562 107.066406 93.703125 C 107.066406 42.390625 107.285156 40.808594 114.765625 37.710938 C 117.492188 36.578125 130.246094 36.242188 159.539062 36.519531 C 210.261719 37.003906 206.375 35.109375 207.027344 59.652344 L 207.46875 76.316406 L 252.667969 76.316406 L 252.667969 62.246094 C 252.667969 45.914062 254.445312 40.160156 260.242188 37.761719 C 263.109375 36.574219 277.269531 36.25 313.800781 36.53125 C 374.617188 36.996094 369.332031 34.820312 369.992188 59.652344 L 370.433594 76.316406 L 415.632812 76.316406 L 415.632812 61.554688 C 415.632812 44.976562 417.152344 40.269531 423.328125 37.710938 C 426.058594 36.578125 438.808594 36.242188 468.105469 36.519531 C 508.695312 36.90625 509.09375 36.9375 512.105469 39.953125 C 515.144531 42.992188 515.148438 43.035156 515.53125 91.875 C 515.84375 132.269531 515.582031 141.25 514.019531 143.601562 C 512.980469 145.164062 498.238281 156.960938 481.257812 169.820312 L 450.386719 193.195312 L 450.371094 382.875 L 477.234375 411.570312 C 492.007812 427.351562 504.628906 441.664062 505.28125 443.378906 C 505.933594 445.09375 506.464844 456.621094 506.464844 468.992188 L 506.464844 491.488281 L 519.789062 491.949219 C 539.988281 492.644531 539.191406 491.140625 539.191406 528.472656 C 539.191406 557.890625 539.136719 558.511719 536.148438 561.496094 L 533.105469 564.539062 L 313.078125 564.828125 C 124.816406 565.074219 92.542969 564.839844 89.5625 563.210938 Z M 89.554688 563.210938 " fill-opacity="1" fill-rule="nonzero"/></g><path fill="#009959" d="M 491.765625 93.011719 L 491.765625 60.285156 L 439.886719 60.285156 L 439.445312 76.949219 C 438.796875 101.347656 442.148438 99.589844 395.308594 100.082031 C 368.523438 100.363281 356.597656 100.019531 353.871094 98.894531 C 347.683594 96.328125 346.164062 91.628906 346.164062 75.042969 L 346.164062 60.28125 L 276.703125 60.28125 L 276.703125 76.238281 C 276.703125 91.171875 276.5 92.429688 273.484375 95.941406 L 270.261719 99.6875 L 232.496094 100.082031 C 205.59375 100.363281 193.632812 100.019531 190.90625 98.890625 C 184.71875 96.328125 183.199219 91.628906 183.199219 75.042969 L 183.199219 60.28125 L 131.105469 60.28125 L 131.105469 125.734375 L 491.765625 125.734375 L 491.765625 93.007812 Z M 491.765625 93.011719 " fill-opacity="1" fill-rule="nonzero"/><path fill="#009959" d="M 452.066406 162.800781 L 468.277344 150.445312 L 389.859375 150.101562 C 346.730469 149.910156 276.191406 149.910156 233.105469 150.101562 L 154.769531 150.445312 L 170.660156 162.734375 L 186.546875 175.019531 L 311.199219 175.089844 L 435.855469 175.15625 Z M 452.066406 162.800781 " fill-opacity="1" fill-rule="nonzero"/><path fill="#009959" d="M 426.3125 287.363281 L 426.3125 199.203125 L 196.558594 199.203125 L 196.558594 375.523438 L 426.3125 375.523438 Z M 426.3125 287.363281 " fill-opacity="1" fill-rule="nonzero"/><path fill="#009959" d="M 464.152344 432.546875 C 462.816406 430.847656 455.40625 422.734375 447.691406 414.515625 L 433.667969 399.570312 L 189.015625 399.570312 L 171.980469 417.601562 L 154.941406 435.636719 L 466.589844 435.636719 L 464.15625 432.546875 Z M 464.152344 432.546875 " fill-opacity="1" fill-rule="nonzero"/><path fill="#009959" d="M 482.414062 475.707031 L 482.414062 459.675781 L 140.457031 459.675781 L 140.457031 491.734375 L 482.414062 491.734375 Z M 482.414062 475.707031 " fill-opacity="1" fill-rule="nonzero"/><path fill="#009959" d="M 515.808594 528.46875 L 515.808594 515.78125 L 107.0625 515.78125 L 107.0625 541.160156 L 515.808594 541.160156 Z M 515.808594 528.46875 " fill-opacity="1" fill-rule="nonzero"/></svg>